# xmcd
#
# Track frame offsets:
#	183
#	16940
#	44648
#	83918
#
# Disc length: 1322 seconds
#
# Revision: 2
# Processed by: cddbd v1.5.2PL0 Copyright (c) Steve Scherf et al.
# Submitted via: audiograbber 1.83.01
#
DISCID=29052804
DTITLE=Q Feat. Tony Jackson  - Everything I Do I Do It For You [CDM)
DYEAR=1995
DGENRE=House
TTITLE0=(Everything I Do) I Do It For You (7'' Radio Mix)
TTITLE1=(Everything I Do) I Do It For You (12'' Extended Vocal Mix)
TTITLE2=(Everything I Do) I Do It For You (Mike Koglin Future Dub)
TTITLE3=Everlasting
EXTD=TR.
EXTT0=
EXTT1=
EXTT2=
EXTT3=
PLAYORDER=
